<?xml version="1.0" encoding="UTF-8"?>
<svg xmlns="http://www.w3.org/2000/svg" xmlns:xlink="http://www.w3.org/1999/xlink" viewBox="0 0 45 45" width="45px" height="45px">
<g id="surface44921357">
<path style=" stroke:none;fill-rule:nonzero;fill:rgb(12.156863%,25.098041%,20%);fill-opacity:1;" d="M 22.5 4.5 C 12.558594 4.5 4.5 12.558594 4.5 22.5 C 4.5 25.875 5.449219 29.023438 7.066406 31.726562 L 4.660156 40.5 L 13.621094 38.148438 C 16.242188 39.636719 19.269531 40.5 22.5 40.5 C 32.441406 40.5 40.5 32.441406 40.5 22.5 C 40.5 12.558594 32.441406 4.5 22.5 4.5 Z M 16.339844 14.101562 C 16.632812 14.101562 16.933594 14.101562 17.191406 14.113281 C 17.511719 14.121094 17.863281 14.144531 18.195312 14.886719 C 18.59375 15.765625 19.460938 17.96875 19.570312 18.191406 C 19.679688 18.417969 19.761719 18.679688 19.605469 18.972656 C 19.457031 19.273438 19.382812 19.453125 19.167969 19.71875 C 18.941406 19.976562 18.699219 20.296875 18.496094 20.492188 C 18.273438 20.714844 18.039062 20.960938 18.296875 21.40625 C 18.558594 21.851562 19.453125 23.3125 20.777344 24.492188 C 22.480469 26.011719 23.917969 26.480469 24.363281 26.703125 C 24.808594 26.925781 25.070312 26.894531 25.328125 26.59375 C 25.59375 26.300781 26.441406 25.296875 26.742188 24.847656 C 27.035156 24.402344 27.332031 24.480469 27.738281 24.625 C 28.148438 24.773438 30.339844 25.855469 30.789062 26.078125 C 31.234375 26.300781 31.527344 26.410156 31.640625 26.59375 C 31.757812 26.78125 31.757812 27.671875 31.386719 28.714844 C 31.015625 29.753906 29.195312 30.757812 28.378906 30.828125 C 27.554688 30.90625 26.789062 31.199219 23.027344 29.71875 C 18.492188 27.933594 15.628906 23.285156 15.40625 22.988281 C 15.183594 22.695312 13.589844 20.570312 13.589844 18.382812 C 13.589844 16.183594 14.742188 15.105469 15.144531 14.660156 C 15.558594 14.214844 16.039062 14.105469 16.339844 14.105469 Z M 16.339844 14.101562 "/>
</g>
</svg>
