<?xml version="1.0" encoding="UTF-8"?>
<svg xmlns="http://www.w3.org/2000/svg" xmlns:xlink="http://www.w3.org/1999/xlink" viewBox="0 0 45 45" width="45px" height="45px">
<g id="surface44917824">
<path style=" stroke:none;fill-rule:nonzero;fill:rgb(12.156863%,25.098041%,20%);fill-opacity:1;" d="M 14.996094 4.5 C 9.207031 4.5 4.5 9.214844 4.5 15.003906 L 4.5 30.003906 C 4.5 35.792969 9.214844 40.5 15.003906 40.5 L 30.003906 40.5 C 35.792969 40.5 40.5 35.785156 40.5 29.996094 L 40.5 14.996094 C 40.5 9.207031 35.785156 4.5 29.996094 4.5 Z M 33 10.5 C 33.828125 10.5 34.5 11.171875 34.5 12 C 34.5 12.828125 33.828125 13.5 33 13.5 C 32.171875 13.5 31.5 12.828125 31.5 12 C 31.5 11.171875 32.171875 10.5 33 10.5 Z M 22.5 13.5 C 27.464844 13.5 31.5 17.535156 31.5 22.5 C 31.5 27.464844 27.464844 31.5 22.5 31.5 C 17.535156 31.5 13.5 27.464844 13.5 22.5 C 13.5 17.535156 17.535156 13.5 22.5 13.5 Z M 22.5 16.5 C 19.1875 16.5 16.5 19.1875 16.5 22.5 C 16.5 25.8125 19.1875 28.5 22.5 28.5 C 25.8125 28.5 28.5 25.8125 28.5 22.5 C 28.5 19.1875 25.8125 16.5 22.5 16.5 Z M 22.5 16.5 "/>
</g>
</svg>
