<?xml version="1.0" encoding="UTF-8"?>
<svg xmlns="http://www.w3.org/2000/svg" xmlns:xlink="http://www.w3.org/1999/xlink" viewBox="0 0 45 45" width="45px" height="45px">
<g id="surface44835921">
<path style=" stroke:none;fill-rule:nonzero;fill:rgb(12.156863%,25.098041%,20%);fill-opacity:1;" d="M 22.5 4.5 C 12.558594 4.5 4.5 12.558594 4.5 22.5 C 4.5 30.125 9.246094 36.640625 15.941406 39.261719 C 15.78125 37.835938 15.640625 35.652344 16.003906 34.097656 C 16.332031 32.695312 18.113281 25.152344 18.113281 25.152344 C 18.113281 25.152344 17.574219 24.070312 17.574219 22.480469 C 17.574219 19.976562 19.027344 18.109375 20.832031 18.109375 C 22.367188 18.109375 23.109375 19.261719 23.109375 20.644531 C 23.109375 22.1875 22.125 24.496094 21.617188 26.636719 C 21.195312 28.429688 22.515625 29.890625 24.285156 29.890625 C 27.484375 29.890625 29.941406 26.515625 29.941406 21.648438 C 29.941406 17.335938 26.84375 14.324219 22.421875 14.324219 C 17.300781 14.324219 14.296875 18.164062 14.296875 22.136719 C 14.296875 23.683594 14.890625 25.339844 15.636719 26.242188 C 15.78125 26.421875 15.804688 26.578125 15.761719 26.761719 C 15.625 27.328125 15.320312 28.550781 15.261719 28.800781 C 15.183594 29.132812 15 29.199219 14.660156 29.042969 C 12.410156 27.996094 11.003906 24.707031 11.003906 22.066406 C 11.003906 16.390625 15.128906 11.175781 22.898438 11.175781 C 29.144531 11.175781 33.996094 15.625 33.996094 21.570312 C 33.996094 27.777344 30.085938 32.765625 24.65625 32.765625 C 22.832031 32.765625 21.117188 31.820312 20.53125 30.699219 C 20.53125 30.699219 19.628906 34.136719 19.410156 34.980469 C 19.003906 36.542969 17.90625 38.503906 17.171875 39.699219 C 18.855469 40.21875 20.644531 40.5 22.5 40.5 C 32.441406 40.5 40.5 32.441406 40.5 22.5 C 40.5 12.558594 32.441406 4.5 22.5 4.5 Z M 22.5 4.5 "/>
</g>
</svg>
